<svg width="448" height="512" xmlns="http://www.w3.org/2000/svg">
 <!--!Font Awesome Free 6.7.2 by @fontawesome - https://fontawesome.com License - https://fontawesome.com/license/free Copyright 2025 Fonticons, Inc.-->

 <g>
  <title>Layer 1</title>
  <path fill="#007fff" id="svg_1" d="m416,0c-16,0 -128,32 -128,176l0,112c0,35.3 28.7,64 64,64l32,0l0,128c0,17.7 14.3,32 32,32s32,-14.3 32,-32l0,-128l0,-112l0,-208c0,-17.7 -14.3,-32 -32,-32zm-352,16c0,-8.2 -6.1,-15 -14.3,-15.9s-15.5,4.5 -17.3,12.4l-30.3,136.3c-1.4,6.3 -2.1,12.7 -2.1,19.1c0,45.9 35.1,83.6 80,87.7l0,224.4c0,17.7 14.3,32 32,32s32,-14.3 32,-32l0,-224.4c44.9,-4.1 80,-41.8 80,-87.7c0,-6.4 -0.7,-12.8 -2.1,-19.1l-30.3,-136.3c-1.8,-8 -9.3,-13.3 -17.4,-12.4s-14.2,7.7 -14.2,15.9l0,134.2c0,5.4 -4.4,9.8 -9.8,9.8c-5.1,0 -9.3,-3.9 -9.8,-9l-12.5,-136.4c-0.7,-8.3 -7.6,-14.6 -15.9,-14.6s-15.2,6.3 -15.9,14.6l-12.4,136.4c-0.5,5.1 -4.7,9 -9.8,9c-5.4,0 -9.8,-4.4 -9.8,-9.8l-0.1,-134.2zm48.3,152l-0.3,0l-0.3,0l0.3,-0.7l0.3,0.7z"/>
 </g>
</svg>